<svg id="Layer_1" data-name="Layer 1" xmlns="http://www.w3.org/2000/svg" viewBox="0 0 40 40"><defs><style>.cls-1{fill:none;}.cls-2{fill:#fff;}</style></defs><title>icon</title><rect class="cls-1" width="40" height="40"/><path class="cls-2" d="M13.26,20.41h1.23v5.31H13.26V20.41Zm2.45,0h1.23v5.31H15.71V20.41Zm0-6.74a.61.61,0,0,1,.61-.61h7.36a.61.61,0,0,1,.61.61v5.51H23.06v-4.9H20.61v4.9H19.39v-4.9H16.94v4.9H15.71V13.67Zm8.58,12H23.06V20.41h1.23v5.31Zm-2.45,0H20.61V20.41h1.23v5.31Zm-2.45,0H18.16V20.41h1.23v5.31Zm6.12-5.31h1.23v5.31H25.51V20.41Zm-14.29,9H28.78a.61.61,0,0,0,.61-.61V27.55A1.82,1.82,0,0,0,28,25.77V20.41h.82a.62.62,0,0,0,0-1.23h-2V12.45a1.84,1.84,0,0,0-1.84-1.84H15.1a1.84,1.84,0,0,0-1.84,1.84v6.73h-2a.62.62,0,0,0,0,1.23H12v5.36a1.82,1.82,0,0,0-1.43,1.78v1.23a.61.61,0,0,0,.61.61Z"/></svg>