<svg id="Layer_1" data-name="Layer 1" xmlns="http://www.w3.org/2000/svg" viewBox="0 0 40 40"><defs><style>.cls-1{fill:none;}.cls-2{fill:#fff;}</style></defs><title>icon</title><rect class="cls-1" width="40" height="40"/><path class="cls-2" d="M20,24l-3.47-3-9.9,8.48A2,2,0,0,0,8,30H32a2,2,0,0,0,1.37-.55L23.46,21Zm0,0"/><path class="cls-2" d="M33.36,10.55A2,2,0,0,0,32,10H8a2,2,0,0,0-1.37.55L20,22Zm0,0"/><path class="cls-2" d="M6,11.76V28.37l9.67-8.22Zm0,0"/><path class="cls-2" d="M24.33,20.15,34,28.37V11.75Zm0,0"/></svg>