<svg id="Layer_1" data-name="Layer 1" xmlns="http://www.w3.org/2000/svg" viewBox="0 0 40 40"><defs><style>.cls-1{fill:none;}.cls-2{fill:#8f7036;}</style></defs><title>icon</title><rect class="cls-1" width="40" height="40"/><path class="cls-2" d="M35,18a2.63,2.63,0,0,0-.91-1.8L31.48,14V7.63a.88.88,0,0,0-.87-.88H27.09a.87.87,0,0,0-.87.88v1.8L21.77,5.64a2.61,2.61,0,0,0-3.42,0L5.92,16.18a2.63,2.63,0,0,0-.28,3.72,2.69,2.69,0,0,0,2.89.77V34.12A.87.87,0,0,0,9.4,35H30.61a.88.88,0,0,0,.87-.88V20.67a2.67,2.67,0,0,0,2.89-.77A2.64,2.64,0,0,0,35,18ZM28,8.51h1.77v3.94L28,10.94ZM23.59,33.24H16.43v-7h7.16Zm1.74,0V25.33a.87.87,0,0,0-.88-.88h-8.9a.87.87,0,0,0-.87.88v7.91H10.27V19.4l9.79-8.3,9.68,8.29V33.24ZM33,18.75a.88.88,0,0,1-1.24.1L20.63,9.28a.88.88,0,0,0-1.14,0L8.21,18.85A.88.88,0,0,1,7,18.75a.87.87,0,0,1,.09-1.23L19.49,7a.86.86,0,0,1,1.14,0L32.94,17.51A.88.88,0,0,1,33,18.75Z"/><path class="cls-2" d="M23.08,14.91H16.92a1,1,0,0,0-1,1v6a1,1,0,0,0,1,1h6.16a1,1,0,0,0,1-1v-6A1,1,0,0,0,23.08,14.91Zm-1,6H17.93v-4h4.16Z"/></svg>