<svg id="Layer_1" data-name="Layer 1" xmlns="http://www.w3.org/2000/svg" viewBox="0 0 40 40"><defs><style>.cls-1{fill:none;}.cls-2{fill:#8f7036;}</style></defs><title>icon</title><rect class="cls-1" width="40" height="40"/><path class="cls-2" d="M16.58,32.91A1.09,1.09,0,0,1,15.49,34H11.83a4.39,4.39,0,0,1-4.38-4.38V10.38A4.39,4.39,0,0,1,11.83,6H25.28a4.38,4.38,0,0,1,4.37,4.38V17.1a1.1,1.1,0,1,1-2.19,0V10.38a2.19,2.19,0,0,0-2.18-2.19H11.83a2.19,2.19,0,0,0-2.19,2.19V29.62a2.19,2.19,0,0,0,2.19,2.19h3.66A1.09,1.09,0,0,1,16.58,32.91Zm7.6-20.35H12.92a1.1,1.1,0,1,0,0,2.19H24.18a1.1,1.1,0,1,0,0-2.19ZM25.28,18a1.09,1.09,0,0,0-1.1-1.09H12.92a1.1,1.1,0,1,0,0,2.19H24.18A1.1,1.1,0,0,0,25.28,18ZM12.92,21.31a1.1,1.1,0,1,0,0,2.19h6.84a1.1,1.1,0,0,0,0-2.19Zm18.67,5.17-6,6a1.14,1.14,0,0,1-.49.28L20.7,34a1,1,0,0,1-.29,0,1.09,1.09,0,0,1-1.05-1.41l1.31-4.31a1.09,1.09,0,0,1,.27-.45l6-6a3.28,3.28,0,0,1,4.64,4.64Zm-3.31.21-1.55-1.55-4.05,4L22,31.32l2.22-.61ZM30,23.38a1.11,1.11,0,0,0-1.55,0l-.21.21,1.55,1.55.21-.21A1.09,1.09,0,0,0,30,23.38Z"/></svg>