<svg id="Layer_1" data-name="Layer 1" xmlns="http://www.w3.org/2000/svg" viewBox="0 0 40 40"><defs><style>.cls-1{fill:none;}.cls-2{fill:#fff;}</style></defs><title>icon</title><rect class="cls-1" width="40" height="40"/><path class="cls-2" d="M29.38,15.35a3.35,3.35,0,0,0-3-3.33,3.34,3.34,0,0,0-3.13-2.18,3.25,3.25,0,0,0-1.72.48,3.34,3.34,0,0,0-6.22,1.09l-.42,0a3.35,3.35,0,0,0-3.34,3.35,2.44,2.44,0,0,0,0,.27,3.34,3.34,0,0,0-.31,5.43,1.09,1.09,0,0,0,0,.18A3.35,3.35,0,0,0,14.58,24a3.31,3.31,0,0,0,1.54-.38c.64.46,1.55,1,2,.92,0,0,.17,2.55.13,3.19a22.77,22.77,0,0,1-.7,3.71h4A27.21,27.21,0,0,1,21,28.1a14.35,14.35,0,0,1,.26-2.34l1.39-1.44a3.4,3.4,0,0,0,1.89.57,3.33,3.33,0,0,0,3.32-3,3.34,3.34,0,0,0,1.35-5.35,3.35,3.35,0,0,0,.22-1.19ZM16.89,23a3.65,3.65,0,0,0,.67-.89l.65,1.38s-.35.16-1.32-.49Zm2.46.85c-.34.06-.92-1-1.33-1.84a3.22,3.22,0,0,0,1.52.37,2.83,2.83,0,0,0,.41,0c-.11.68-.29,1.44-.6,1.5Zm1.44.67c-.78.22-.31-1.41-.09-2.35l.47-.22a3.28,3.28,0,0,0,.84,1.8,3.59,3.59,0,0,1-1.22.77Zm0,0"/></svg>