<svg id="Layer_1" data-name="Layer 1" xmlns="http://www.w3.org/2000/svg" viewBox="0 0 40 40"><defs><style>.cls-1{fill:none;}.cls-2{fill:#fff;}</style></defs><title>icon</title><rect class="cls-1" width="40" height="40"/><path class="cls-2" d="M32.11,14.68a1.41,1.41,0,0,0-.35.05l-1.33.37L29,11.73A3,3,0,0,0,26.46,10H13.52a3,3,0,0,0-2.58,1.73L9.56,15.09l-1.32-.36a1.41,1.41,0,0,0-.35-.05A1.08,1.08,0,0,0,6.8,15.83v.78A1.4,1.4,0,0,0,8.21,18h.15l-.23.55a10.6,10.6,0,0,0-.66,3.34v6.7A1.41,1.41,0,0,0,8.88,30h1.83a1.4,1.4,0,0,0,1.4-1.4V26.93H27.87V28.6a1.4,1.4,0,0,0,1.4,1.4H31.1a1.41,1.41,0,0,0,1.41-1.4V21.9a10.66,10.66,0,0,0-.66-3.34L31.62,18h.17a1.4,1.4,0,0,0,1.41-1.4v-.78a1.09,1.09,0,0,0-1.09-1.15ZM10.56,17.25l2.09-5.09a1.84,1.84,0,0,1,1.55-1H25.78a1.82,1.82,0,0,1,1.55,1l2.09,5.09a.7.7,0,0,1-.7,1H11.26a.7.7,0,0,1-.7-1Zm4.67,6.45a.56.56,0,0,1-.56.56h-4a.56.56,0,0,1-.56-.56V21.79a.56.56,0,0,1,.56-.56h4a.56.56,0,0,1,.56.56Zm14.58,0a.56.56,0,0,1-.56.56h-4a.56.56,0,0,1-.56-.56V21.79a.56.56,0,0,1,.56-.56h4a.56.56,0,0,1,.56.56Zm0,0"/></svg>