<?xml version="1.0" encoding="utf-8"?>
<!-- Generator: Adobe Illustrator 22.1.0, SVG Export Plug-In . SVG Version: 6.00 Build 0)  -->
<svg version="1.1" id="Layer_1" xmlns="http://www.w3.org/2000/svg" xmlns:xlink="http://www.w3.org/1999/xlink" x="0px" y="0px"
	 viewBox="0 0 262.5 55.4" style="enable-background:new 0 0 262.5 55.4;" xml:space="preserve">
<style type="text/css">
	.st0{fill:#BF9337;}
	.st1{enable-background:new    ;}
	.st2{fill:#FFFFFF;}
</style>
<title>logo-cimbra</title>
<path class="st0" d="M22.5,53h-0.1L0.5,42V18l22,11l22-11v24L22.5,53z M0.9,41.8l21.6,10.8l21.6-10.8v-23L22.5,29.5l-0.1,0L0.9,18.7
	V41.8z"/>
<rect x="22.3" y="29.3" class="st0" width="0.4" height="23.5"/>
<polyline class="st0" points="22.5,4.1 22.5,4.1 22.5,4.1 26,5.8 7.8,14.9 7,15.3 7.8,15.7 22.3,23 22.5,23.1 22.7,23 41.5,13.6 
	45,15.3 22.5,26.6 0,15.3 3.5,13.6 3.5,13.6 3.7,13.5 22.5,4.1 "/>
<g class="st1">
	<path class="st0" d="M66.1,40.8c0.6,0.5,0.9,1.2,0.9,2.1s-0.3,1.6-0.9,2.1c-0.6,0.5-1.5,0.8-2.6,0.8h-2.8v4.4h-0.4V40h3.2
		C64.7,40,65.5,40.3,66.1,40.8z M65.8,44.8c0.5-0.4,0.8-1.1,0.8-1.9s-0.3-1.4-0.8-1.9c-0.5-0.4-1.3-0.7-2.3-0.7h-2.8v5h2.8
		C64.5,45.4,65.3,45.2,65.8,44.8z"/>
</g>
<g class="st1">
	<path class="st0" d="M79.3,50.2l-3-4.6H76h-3.3v4.6h-0.4V40H76c1,0,1.8,0.3,2.4,0.8c0.6,0.5,0.9,1.2,0.9,2.1c0,0.8-0.2,1.4-0.7,1.9
		c-0.5,0.5-1.1,0.8-1.9,0.9l3,4.6H79.3z M78.1,44.6c0.5-0.4,0.7-1,0.7-1.8c0-0.8-0.2-1.4-0.7-1.8s-1.2-0.6-2.1-0.6h-3.3v4.9H76
		C76.9,45.3,77.6,45.1,78.1,44.6z"/>
</g>
<g class="st1">
	<path class="st0" d="M91.5,40.5c0.7,0.4,1.3,1,1.6,1.8s0.6,1.7,0.6,2.8c0,1.1-0.2,2-0.6,2.8s-0.9,1.4-1.6,1.8
		c-0.7,0.4-1.5,0.6-2.5,0.6s-1.8-0.2-2.5-0.6s-1.2-1-1.6-1.8c-0.4-0.8-0.6-1.7-0.6-2.8c0-1.1,0.2-2,0.6-2.8c0.4-0.8,0.9-1.4,1.6-1.8
		s1.5-0.6,2.5-0.6S90.8,40.1,91.5,40.5z M86.8,40.8c-0.6,0.4-1.1,1-1.5,1.7c-0.3,0.7-0.5,1.6-0.5,2.6s0.2,1.9,0.5,2.6
		c0.3,0.7,0.8,1.3,1.5,1.7s1.4,0.6,2.3,0.6s1.6-0.2,2.3-0.6c0.6-0.4,1.1-1,1.5-1.7c0.3-0.7,0.5-1.6,0.5-2.6s-0.2-1.9-0.5-2.6
		c-0.3-0.7-0.8-1.3-1.5-1.7c-0.6-0.4-1.4-0.6-2.3-0.6S87.4,40.4,86.8,40.8z"/>
	<path class="st0" d="M105.1,40.8c0.6,0.5,0.9,1.2,0.9,2.1s-0.3,1.6-0.9,2.1c-0.6,0.5-1.5,0.8-2.6,0.8h-2.8v4.4h-0.4V40h3.2
		C103.6,40,104.5,40.3,105.1,40.8z M104.8,44.8c0.5-0.4,0.8-1.1,0.8-1.9s-0.3-1.4-0.8-1.9c-0.5-0.4-1.3-0.7-2.3-0.7h-2.8v5h2.8
		C103.5,45.4,104.3,45.2,104.8,44.8z"/>
	<path class="st0" d="M111.7,50.2h-0.4V40h0.4V50.2z"/>
	<path class="st0" d="M125,49.9v0.4h-7.1V40h6.9v0.4h-6.4v4.4h5.1v0.4h-5.1v4.6H125z"/>
</g>
<g class="st1">
	<path class="st0" d="M137.2,41.3c0.9,0.8,1.3,2.1,1.3,3.7c0,1.7-0.4,3-1.3,3.9c-0.9,0.9-2.1,1.3-3.8,1.3h-3.2V40h3.2
		C135.1,40,136.3,40.4,137.2,41.3z M136.9,48.6c0.8-0.8,1.2-2,1.2-3.6c0-1.5-0.4-2.6-1.2-3.4c-0.8-0.8-1.9-1.2-3.4-1.2h-2.8v9.5h2.8
		C134.9,49.9,136.1,49.4,136.9,48.6z"/>
</g>
<g class="st1">
	<path class="st0" d="M149.5,46.8h-5.1l-1.4,3.5h-0.5l4.2-10.2h0.5l4.2,10.2H151L149.5,46.8z M149.4,46.4l-2.1-5.1l-0.3-0.8
		l-0.3,0.8l-2.1,5.1H149.4z"/>
	<path class="st0" d="M163.3,41.3c0.9,0.8,1.3,2.1,1.3,3.7c0,1.7-0.4,3-1.3,3.9c-0.9,0.9-2.1,1.3-3.8,1.3h-3.2V40h3.2
		C161.1,40,162.4,40.4,163.3,41.3z M162.9,48.6c0.8-0.8,1.2-2,1.2-3.6c0-1.5-0.4-2.6-1.2-3.4c-0.8-0.8-1.9-1.2-3.4-1.2h-2.8v9.5h2.8
		C161,49.9,162.2,49.4,162.9,48.6z"/>
	<path class="st0" d="M177.3,49.9v0.4h-7.1V40h6.9v0.4h-6.4v4.4h5.1v0.4h-5.1v4.6H177.3z"/>
	<path class="st0" d="M189.3,42.2l-0.4,0.3c-0.2-0.8-0.6-1.3-1.2-1.7c-0.6-0.4-1.3-0.5-2.2-0.5c-0.7,0-1.2,0.1-1.7,0.3
		c-0.5,0.2-0.9,0.5-1.1,0.9c-0.3,0.4-0.4,0.8-0.4,1.2c0,0.4,0.1,0.8,0.3,1.1c0.2,0.3,0.6,0.5,1.1,0.7s1.2,0.4,2.1,0.5
		c0.9,0.2,1.6,0.3,2.1,0.6c0.5,0.2,0.9,0.5,1.1,0.9s0.4,0.8,0.4,1.3c0,0.5-0.2,1-0.5,1.4c-0.3,0.4-0.8,0.7-1.3,1s-1.2,0.3-2,0.3
		c-1.1,0-2-0.2-2.8-0.7s-1.2-1.1-1.4-2l0.4-0.3c0.2,0.8,0.6,1.4,1.3,1.9c0.7,0.4,1.5,0.6,2.5,0.6c1,0,1.8-0.2,2.4-0.6
		c0.6-0.4,0.9-1,0.9-1.7c0-0.6-0.2-1.1-0.7-1.5s-1.3-0.6-2.5-0.8c-1-0.2-1.8-0.4-2.3-0.6c-0.6-0.2-1-0.5-1.2-0.9
		c-0.2-0.3-0.4-0.8-0.4-1.3c0-0.5,0.1-1,0.4-1.4c0.3-0.4,0.7-0.8,1.3-1c0.6-0.3,1.2-0.4,2-0.4C187.6,39.8,188.8,40.6,189.3,42.2z"/>
</g>
<g class="st1">
	<path class="st2" d="M78.8,30.5c-1.8,1.2-3.9,1.8-6.4,1.8c-2.3,0-4.2-0.5-6-1.6c-1.7-1.1-3.1-2.6-4-4.6c-0.9-2-1.4-4.3-1.4-6.9
		s0.5-4.9,1.4-6.9s2.3-3.5,4-4.6c1.7-1.1,3.7-1.6,6-1.6c5.3,0,8.5,2.2,9.8,6.5l-1,0.5c-1.2-4.1-4.2-6.1-8.8-6.1
		c-2.1,0-3.8,0.5-5.4,1.5c-1.5,1-2.7,2.4-3.6,4.2c-0.9,1.8-1.3,4-1.3,6.4c0,2.5,0.4,4.6,1.3,6.4c0.9,1.8,2.1,3.2,3.6,4.2
		c1.5,1,3.3,1.5,5.4,1.5c2.3,0,4.2-0.5,5.8-1.6c1.6-1.1,2.6-2.6,3.2-4.6l1.1,0.4C81.8,27.7,80.6,29.4,78.8,30.5z"/>
	<path class="st2" d="M100.5,31.9h-1.1V6.5h1.1V31.9z"/>
	<path class="st2" d="M142.7,31.9h-1V10.8l0.1-3l-10,24.2h-1.1l-10-24.2h0l0.1,3v21.1h-1V6.5h1.5l9.2,22l0.7,2.1h0l0.7-2.1l9.2-22
		h1.5V31.9z"/>
	<path class="st2" d="M162,6.5h8.9c2.6,0,4.6,0.6,6,1.7c1.3,1.1,2,2.7,2,4.9c0,1.6-0.4,2.9-1.2,3.9c-0.8,1-2.1,1.7-3.7,2.1v0
		c1.8,0.3,3.1,0.9,4.1,2c1,1.1,1.5,2.5,1.5,4.2c0,2.2-0.7,3.8-2.2,4.9c-1.5,1.1-3.6,1.7-6.4,1.7H162V6.5z M171,18.6
		c2.3,0,4-0.5,5.1-1.4c1.2-0.9,1.7-2.3,1.7-4.1c0-1.8-0.6-3.2-1.7-4.2c-1.2-0.9-2.9-1.4-5.1-1.4h-7.8v11.1H171z M171.1,31
		c2.4,0,4.3-0.5,5.5-1.4c1.2-1,1.9-2.4,1.9-4.2c0-1.9-0.6-3.3-1.9-4.2s-3.1-1.4-5.5-1.4h-8V31H171.1z"/>
	<path class="st2" d="M214.6,31.9l-7.5-11.3h-0.5h-8.2v11.3h-1.1V6.5h9.3c2.5,0,4.5,0.6,5.9,1.9c1.4,1.2,2.2,3,2.2,5.1
		c0,1.9-0.6,3.5-1.7,4.7c-1.1,1.2-2.7,1.9-4.7,2.2l7.5,11.5H214.6z M211.8,18c1.2-1.1,1.8-2.5,1.8-4.5c0-1.9-0.6-3.4-1.8-4.4
		c-1.2-1.1-3-1.6-5.2-1.6h-8.2v12.1h8.2C208.8,19.6,210.5,19,211.8,18z"/>
</g>
<g class="st1">
	<path class="st2" d="M246.7,23.3h-12.6l-3.5,8.6h-1.1l10.3-25.4h1.2l10.3,25.4h-1.1L246.7,23.3z M246.3,22.3l-5.1-12.6l-0.8-2.1
		l-0.8,2l-5.2,12.6H246.3z"/>
</g>
</svg>
