<svg id="Layer_1" data-name="Layer 1" xmlns="http://www.w3.org/2000/svg" viewBox="0 0 40 40"><defs><style>.cls-1{fill:none;}.cls-2{fill:#fff;}</style></defs><title>icon</title><rect class="cls-1" y="0.04" width="40" height="40"/><path class="cls-2" d="M28.4,22.93v3.2H30v-4.8H11.6V14.77a.85.85,0,0,0-.23-.57.77.77,0,0,0-1.14,0,.85.85,0,0,0-.23.57V26.13h1.6v-3.2Zm0,0"/><path class="cls-2" d="M14.12,18.05a1.52,1.52,0,0,0,1.06-.43,1.38,1.38,0,0,0,.44-1,1.36,1.36,0,0,0-.44-1,1.48,1.48,0,0,0-1.06-.43,1.47,1.47,0,0,0-1.46,1.46,1.4,1.4,0,0,0,.43,1,1.42,1.42,0,0,0,1,.43Zm0,0"/><path class="cls-2" d="M30,20.12v-2a1,1,0,0,0-.33-.76,1.62,1.62,0,0,0-.84-.37L17.23,15.9h-.08a.72.72,0,0,0-.53.21.74.74,0,0,0-.21.53v2.27h-3c-.5,0-.74.2-.74.6s.24.61.74.61Zm0,0"/></svg>