<svg id="Layer_1" data-name="Layer 1" xmlns="http://www.w3.org/2000/svg" viewBox="0 0 40 40"><defs><style>.cls-1{fill:none;}.cls-2{fill:#fff;}</style></defs><title>icon</title><rect class="cls-1" width="40" height="40"/><path class="cls-2" d="M28.54,16.12H11.46a.74.74,0,0,0-.54.23.73.73,0,0,0-.23.55V28.54a.79.79,0,0,0,.77.77H28.54a.79.79,0,0,0,.77-.77V16.9a.73.73,0,0,0-.23-.55.74.74,0,0,0-.54-.23ZM22.1,19.77a.78.78,0,0,1-.55.23h-3.1a.78.78,0,0,1-.55-.23.76.76,0,0,1-.23-.55.79.79,0,0,1,.78-.77h3.1a.79.79,0,0,1,.78.77.76.76,0,0,1-.23.55Zm0,0"/><path class="cls-2" d="M29.86,10.92a.73.73,0,0,0-.55-.23H10.69a.73.73,0,0,0-.55.23.74.74,0,0,0-.23.54v3.11a.74.74,0,0,0,.23.54.73.73,0,0,0,.55.23H29.31a.73.73,0,0,0,.55-.23.74.74,0,0,0,.23-.54V11.46a.74.74,0,0,0-.23-.54Zm0,0"/></svg>