<svg id="Layer_1" data-name="Layer 1" xmlns="http://www.w3.org/2000/svg" viewBox="0 0 40 40"><defs><style>.cls-1{fill:none;}.cls-2{fill:#fff;}</style></defs><title>icon</title><rect class="cls-1" width="40" height="40"/><path class="cls-2" d="M10.88,10h7.57a1.26,1.26,0,1,1,0,2.52H10.88a1.26,1.26,0,0,1,0-2.52Z"/><path class="cls-2" d="M24.83,27.22v2.15a.63.63,0,0,1-.63.63H16.55a.63.63,0,0,1-.63-.63V27.58a2.12,2.12,0,0,0-1.46-2,3.4,3.4,0,0,1-2.31-3.12H29.59A7,7,0,0,1,24.83,27.22Z"/><path class="cls-2" d="M18.45,21.89H12.77A1.89,1.89,0,0,1,10.88,20V13h7.57Z"/><path class="cls-2" d="M19,19.37H29.12a1.26,1.26,0,0,1,0,2.52H19Z"/></svg>