<svg id="Layer_1" data-name="Layer 1" xmlns="http://www.w3.org/2000/svg" viewBox="0 0 40 40"><defs><style>.cls-1{fill:none;}.cls-2{fill:#fff;}</style></defs><title>icon</title><rect class="cls-1" y="0.08" width="40" height="40"/><path class="cls-2" d="M20,10.08h0a10,10,0,0,0-8.1,15.86l-1.24,3.71,3.84-1.23A9.9,9.9,0,0,0,20,30.08a10,10,0,0,0,0-20ZM25.82,24.2a2.84,2.84,0,0,1-2,1.41c-.52.11-1.21.2-3.5-.75a12.59,12.59,0,0,1-5-4.4,5.7,5.7,0,0,1-1.19-3,3.21,3.21,0,0,1,1-2.43,1.43,1.43,0,0,1,1-.36h.34c.29,0,.44,0,.63.5s.83,2,.9,2.16a.6.6,0,0,1,0,.54,1.85,1.85,0,0,1-.33.46c-.15.17-.29.3-.43.48s-.29.33-.12.62a8.93,8.93,0,0,0,1.62,2,7.55,7.55,0,0,0,2.35,1.45.64.64,0,0,0,.7-.11,12.73,12.73,0,0,0,.78-1,.57.57,0,0,1,.72-.22c.27.1,1.7.8,2,.95s.49.22.56.34A2.51,2.51,0,0,1,25.82,24.2Z"/></svg>