<svg id="Layer_1" data-name="Layer 1" xmlns="http://www.w3.org/2000/svg" viewBox="0 0 262.53 55.39"><defs><style>.cls-1,.cls-2{fill:#bf9337;}.cls-2{font-size:15.53px;letter-spacing:0.2em;}.cls-2,.cls-6{font-family:WorkSans-ExtraLight, Work Sans;}.cls-3{letter-spacing:0.2em;}.cls-4{letter-spacing:0.2em;}.cls-5{letter-spacing:0.19em;}.cls-6{font-size:38.46px;fill:#fff;letter-spacing:0.3em;}.cls-7{letter-spacing:0.28em;}</style></defs><title>logo-cimbra</title><path class="cls-1" d="M22.49,53.05l-.1,0L.48,42V18l22,11,22-11V42ZM.91,41.75,22.49,52.57,44.06,41.75v-23L22.49,29.55l-.1-.05L.91,18.74Z"/><rect class="cls-1" x="22.27" y="29.31" width="0.43" height="23.5"/><polyline class="cls-1" points="22.48 4.06 22.48 4.06 22.48 4.06 25.98 5.82 7.76 14.95 7 15.33 7.76 15.71 22.3 22.99 22.49 23.09 22.68 22.99 41.47 13.57 44.97 15.33 22.49 26.6 0 15.33 3.5 13.57 3.5 13.57 3.69 13.48 22.48 4.06"/><text class="cls-2" transform="translate(58.77 50.25)">P<tspan class="cls-3" x="11.96" y="0">R</tspan><tspan class="cls-4" x="24.69" y="0">OPIE</tspan><tspan class="cls-5" x="69.9" y="0">D</tspan><tspan class="cls-4" x="83.55" y="0">ADES</tspan></text><text class="cls-6" transform="translate(58.77 31.92)">CIMBR<tspan class="cls-7" x="170.06" y="0">A</tspan></text></svg>